<svg xmlns="http://www.w3.org/2000/svg" viewBox="0 0 347.8 84.5"><defs><style>.cls-1{fill:#fefefe;}.cls-2,.cls-3,.cls-6{fill:#fff;}.cls-3{font-size:60px;letter-spacing:-0.02em;}.cls-3,.cls-6{font-family:HiraMaruProN-W4-83pv-RKSJ-H, Hiragino Maru Gothic ProN;}.cls-4{letter-spacing:-0.01em;}.cls-5{letter-spacing:0em;}.cls-6{font-size:18px;letter-spacing:0.15em;}</style></defs><g id="Layer_1" data-name="Layer 1"><path class="cls-1" d="M89.67,134.09H46.44c-1.53,0-1.53,0-1.49-1.56a44.86,44.86,0,0,1,88.73-7.68,46.2,46.2,0,0,1,.93,7.87c0,1.07-.25,1.4-1.36,1.4Q111.46,134.06,89.67,134.09Z" transform="translate(-44.93 -84.72)"/><path class="cls-2" d="M89.71,139.75q-21.72,0-43.45,0c-.48,0-1.28.42-1.32-.64,0-.62.12-1,.83-.93a5.8,5.8,0,0,0,.59,0h86.92c.59,0,1.46-.33,1.39.85,0,.46-.13.76-.67.73-.32,0-.63,0-.95,0Z" transform="translate(-44.93 -84.72)"/><path class="cls-1" d="M89.68,141.91H45.52c-.5,0-.57-.29-.57-.69s0-.81.6-.78h87.86c.57,0,1.25-.15,1.19.83,0,.42-.18.66-.64.65H89.68Z" transform="translate(-44.93 -84.72)"/><path class="cls-2" d="M89.77,147.57H56.62c-.53,0-.5-.4-.51-.76s0-.75.48-.8c.31,0,.63,0,.95,0h64.53c.68,0,1.52-.23,1.4,1,0,.44-.21.64-.66.61s-.63,0-1,0Z" transform="translate(-44.93 -84.72)"/><path class="cls-1" d="M89.73,149.73H56.81c-.51,0-.7-.22-.69-.72s.09-.78.63-.77H122.6c.51,0,.82.12.81.72s-.19.81-.75.77c-.32,0-.63,0-1,0Z" transform="translate(-44.93 -84.72)"/><path class="cls-2" d="M89.78,155.39H71.67c-.63,0-1.2.05-1.12-.88,0-.5.23-.72.72-.71h36.46c.42,0,1-.26,1.24.37s-.06,1.21-1,1.21Z" transform="translate(-44.93 -84.72)"/><path class="cls-1" d="M89.61,157.55H71.13c-.49,0-.56-.33-.55-.72s0-.73.52-.75h36.59c.41,0,1-.28,1.22.37s-.06,1.13-1,1.13c-4.26,0-8.53,0-12.79,0Z" transform="translate(-44.93 -84.72)"/><path class="cls-2" d="M89.72,163.21c-3.43,0-6.86,0-10.29,0-.53,0-1.23.26-1.25-.75s.6-.83,1.19-.83h20.81c.58,0,1.2-.14,1.19.83s-.72.75-1.24.75C96.66,163.22,93.19,163.21,89.72,163.21Z" transform="translate(-44.93 -84.72)"/><path class="cls-1" d="M89.8,165.37H79.27c-.5,0-1,.12-1.07-.71s.55-.78,1.11-.78h20.93c.53,0,1.13-.15,1.11.76s-.65.72-1.15.72Z" transform="translate(-44.93 -84.72)"/></g><g id="Layer_3" data-name="Layer 3"><text class="cls-3" transform="translate(113.8 52.8)">中<tspan class="cls-4" x="58.68" y="0">山</tspan><tspan class="cls-5" x="118.2" y="0">GO</tspan></text><text class="cls-6" transform="translate(119.24 77.86)">校友品牌推廣購物平台</text></g></svg>